# xmcd
#
# Track frame offsets: 
#        150
#        20142
#        37923
#        52284
#        67480
#        86389
#        105404
#        120655
#        142624
#        159157
#        177487
#        198682
#
# Disc length: 2993 seconds
#
# Revision: 0
# Processed by: cddbd v1.5.2PL0 Copyright (c) Steve Scherf et al.
# Submitted via: ExactAudioCopy v0.99pb5
#
DISCID=a50baf0c
DTITLE=Pure Band Indonesia - Forward
DYEAR=2009
DGENRE=Christian
TTITLE0=Yang Ku Mau
TTITLE1=Lihatlah
TTITLE2=Ku S'karang Milik Mu
TTITLE3=Betapa Indah
TTITLE4=Kasih Mu
TTITLE5=Precious
TTITLE6=Pesona Mu (ft. Rhea UX)
TTITLE7=Lagu Untuk Dia
TTITLE8=Hati Yang Murni
TTITLE9=Damainya Hatiku
TTITLE10=Ku Dipilih
TTITLE11=King of Majesty (Bonus Track)
EXTD=
EXTT0=
EXTT1=
EXTT2=
EXTT3=
EXTT4=
EXTT5=
EXTT6=
EXTT7=
EXTT8=
EXTT9=
EXTT10=
EXTT11=
PLAYORDER=
